<?xml version="1.0" encoding="UTF-8" standalone="no"?><!DOCTYPE svg PUBLIC "-//W3C//DTD SVG 1.1//EN" "http://www.w3.org/Graphics/SVG/1.1/DTD/svg11.dtd"><svg width="100%" height="100%" viewBox="0 0 200 200" version="1.1" xmlns="http://www.w3.org/2000/svg" xmlns:xlink="http://www.w3.org/1999/xlink" xml:space="preserve" xmlns:serif="http://www.serif.com/" style="fill-rule:evenodd;clip-rule:evenodd;stroke-linejoin:round;stroke-miterlimit:1.41421;"><path d="M164.649,188.503l0,10.854" style="fill:none;"/><path d="M161.223,53.762c0,-1.946 -0.773,-3.812 -2.149,-5.188c-1.376,-1.375 -3.242,-2.148 -5.187,-2.148c-15.365,0 -50.741,0 -65.74,0c-3.824,0 -6.924,3.1 -6.924,6.924c0,15.205 0,51.349 0,66.36c-0.001,1.781 0.707,3.489 1.966,4.749c1.26,1.259 2.968,1.967 4.749,1.967c14.531,0 48.866,0 64.839,0c2.24,0 4.388,-0.89 5.972,-2.474c1.584,-1.584 2.474,-3.732 2.474,-5.972c0,-15.75 0,-49.352 0,-64.218Z" style="fill:#09f;"/><path d="M97.469,5.522c0.777,-1.208 2.114,-1.938 3.55,-1.938c1.436,0 2.774,0.73 3.55,1.938c8.386,13.045 29.354,45.661 37.82,58.831c0.725,1.127 0.776,2.561 0.134,3.738c-0.643,1.177 -1.877,1.909 -3.217,1.909c-16.617,0 -59.533,0 -76.366,0c-1.382,0 -2.654,-0.755 -3.316,-1.968c-0.663,-1.213 -0.61,-2.691 0.138,-3.854c8.537,-13.28 29.358,-45.668 37.707,-58.656Z" style="fill:#f81d00;"/><circle cx="152.31" cy="124.247" r="30" style="fill:#00ff49;"/><path d="M42.361,62.704c0,-3.86 -3.129,-6.99 -6.99,-6.99c-7.851,0 -20.519,0 -28.364,0c-1.849,0 -3.623,0.735 -4.931,2.043c-1.308,1.308 -2.043,3.081 -2.043,4.931c0,27.074 0,123.718 0,123.718l42.328,0c0,0 0,-96.606 0,-123.702Z" style="fill:#ffe100;"/><path d="M185.775,173.793c0,-1.885 -0.748,-3.692 -2.081,-5.024c-1.333,-1.333 -3.14,-2.082 -5.024,-2.082c-34.026,0 -178.67,0 -178.67,0c0,0 0,16.674 0,26.429c0,1.826 0.725,3.577 2.016,4.868c1.291,1.291 3.042,2.016 4.868,2.016c29.324,0 143.627,0 172.326,0c3.626,0 6.565,-2.939 6.565,-6.565c0,-5.664 0,-13.826 0,-19.642Z" style="fill:#ffe100;"/><path d="M168.694,190.823c0,-2.246 -1.821,-4.068 -4.068,-4.068c0,0 0,0 0,0c-2.247,0 -4.068,1.822 -4.068,4.068c0,3.867 0,9.097 0,9.097l8.136,0c0,0 0,-5.23 0,-9.097Z" style="fill:#353535;"/><path d="M47.098,191.058c0,-2.247 -1.822,-4.068 -4.068,-4.068c0,0 -0.001,0 -0.001,0c-2.246,0 -4.068,1.821 -4.068,4.068c0,3.8 0,8.893 0,8.893l8.137,0c0,0 0,-5.093 0,-8.893Z" style="fill:#353535;"/><path d="M67.501,184.215c0,-2.247 -1.822,-4.068 -4.068,-4.068c0,0 -0.001,0 -0.001,0c-2.246,0 -4.068,1.821 -4.068,4.068c0,5.796 0,15.736 0,15.736l8.137,0c0,0 0,-9.94 0,-15.736Z" style="fill:#353535;"/><path d="M27.045,184.503c0,-2.247 -1.822,-4.068 -4.068,-4.068c-0.001,0 -0.001,0 -0.001,0c-2.246,0 -4.068,1.821 -4.068,4.068c0,5.72 0,15.448 0,15.448l8.137,0c0,0 0,-9.728 0,-15.448Z" style="fill:#353535;"/><path d="M87.741,190.854c0,-2.246 -1.821,-4.068 -4.068,-4.068c0,0 0,0 0,0c-2.247,0 -4.068,1.822 -4.068,4.068c0,3.867 0,9.097 0,9.097l8.136,0c0,0 0,-5.23 0,-9.097Z" style="fill:#353535;"/><path d="M107.972,184.215c0,-2.247 -1.821,-4.068 -4.068,-4.068c0,0 0,0 0,0c-2.247,0 -4.068,1.821 -4.068,4.068c0,5.796 0,15.736 0,15.736l8.136,0c0,0 0,-9.94 0,-15.736Z" style="fill:#353535;"/><path d="M128.067,190.854c0,-2.246 -1.821,-4.068 -4.068,-4.068c0,0 0,0 0,0c-2.247,0 -4.068,1.822 -4.068,4.068c0,3.867 0,9.097 0,9.097l8.136,0c0,0 0,-5.23 0,-9.097Z" style="fill:#353535;"/><path d="M148.163,184.283c0,-1.079 -0.429,-2.114 -1.192,-2.877c-0.763,-0.763 -1.798,-1.191 -2.876,-1.191c-0.001,0 -0.001,0 -0.001,0c-1.079,0 -2.113,0.428 -2.876,1.191c-0.763,0.763 -1.192,1.798 -1.192,2.877c0,5.778 0,15.668 0,15.668l8.137,0c0,0 0,-9.89 0,-15.668Z" style="fill:#353535;"/><path d="M14.954,185.164l-13.998,0" style="fill:none;"/><path d="M13.752,94.013c0.836,0 1.638,-0.332 2.23,-0.924c0.591,-0.591 0.924,-1.393 0.924,-2.23c0,0 0,-0.001 0,-0.001c0,-0.836 -0.333,-1.639 -0.924,-2.23c-0.592,-0.592 -1.394,-0.924 -2.23,-0.924c-4.844,0 -13.561,0 -13.561,0l0,6.309c0,0 8.717,0 13.561,0Z" style="fill:#353535;"/><path d="M22.576,109.834c0.837,0 1.639,-0.332 2.23,-0.924c0.592,-0.591 0.924,-1.394 0.924,-2.23c0,0 0,-0.001 0,-0.001c0,-0.837 -0.332,-1.639 -0.924,-2.23c-0.591,-0.592 -1.393,-0.924 -2.23,-0.924c-6.831,0 -22.385,0 -22.385,0l0,6.309c0,0 15.554,0 22.385,0Z" style="fill:#353535;"/><path d="M22.205,78.464c0.836,0 1.638,-0.333 2.23,-0.924c0.591,-0.592 0.924,-1.394 0.924,-2.23c0,-0.001 0,-0.001 0,-0.001c0,-0.837 -0.333,-1.639 -0.924,-2.231c-0.592,-0.591 -1.394,-0.923 -2.23,-0.923c-6.756,0 -22.014,0 -22.014,0l0,6.309c0,0 15.258,0 22.014,0Z" style="fill:#353535;"/><path d="M14.014,125.529c1.742,0 3.154,-1.412 3.154,-3.154c0,-0.001 0,-0.001 0,-0.001c0,-1.742 -1.412,-3.154 -3.154,-3.154c-4.91,0 -13.823,0 -13.823,0l0,6.309c0,0 8.913,0 13.823,0Z" style="fill:#353535;"/><path d="M22.576,141.216c0.837,0 1.639,-0.332 2.23,-0.923c0.592,-0.592 0.924,-1.394 0.924,-2.231c0,0 0,0 0,-0.001c0,-0.836 -0.332,-1.638 -0.924,-2.23c-0.591,-0.591 -1.393,-0.924 -2.23,-0.924c-6.831,0 -22.385,0 -22.385,0l0,6.309c0,0 15.554,0 22.385,0Z" style="fill:#353535;"/><path d="M14.014,156.798c1.742,0 3.154,-1.412 3.154,-3.154c0,0 0,0 0,-0.001c0,-1.741 -1.412,-3.154 -3.154,-3.154c-4.91,0 -13.823,0 -13.823,0l0,6.309c0,0 8.913,0 13.823,0Z" style="fill:#353535;"/></svg>