<?xml version="1.0" encoding="UTF-8" standalone="no"?><!DOCTYPE svg PUBLIC "-//W3C//DTD SVG 1.1//EN" "http://www.w3.org/Graphics/SVG/1.1/DTD/svg11.dtd"><svg width="100%" height="100%" viewBox="0 0 200 200" version="1.1" xmlns="http://www.w3.org/2000/svg" xmlns:xlink="http://www.w3.org/1999/xlink" xml:space="preserve" xmlns:serif="http://www.serif.com/" style="fill-rule:evenodd;clip-rule:evenodd;stroke-linejoin:round;stroke-miterlimit:1.41421;"><rect x="66.401" y="148.131" width="4.5" height="15" style="fill:#23aaff;"/><path d="M61.151,153.381l0,4.5l15,0l0,-4.5l-15,0Z" style="fill:#23aaff;"/><path d="M88.107,12.5l-10.607,10.607l35.355,35.355l10.607,-10.607l-35.355,-35.355Z" style="fill:#ff0047;"/><path d="M77.5,47.855l10.607,10.607l35.355,-35.355l-10.607,-10.607l-35.355,35.355Z" style="fill:#ff0047;"/><path d="M10,92.5l0,15l50,0l0,-15l-50,0Z" style="fill:#0089ff;"/><path d="M5.552,164.654l0,3.881l50,0l0,-3.881l-50,0Z" style="fill:#363636;"/><path d="M75,100.994l0,15l50,0l0,-15l-50,0Z" style="fill:#fff;"/><path d="M75,84.778l0,15l50,0l0,-15l-50,0Z" style="fill:#fff;"/><text x="136.444px" y="52.067px" style="font-family:'ArialMT', 'Arial', sans-serif;font-size:54.637px;fill:#00f;">60</text><text x="146.679px" y="123.016px" style="font-family:'ArialMT', 'Arial', sans-serif;font-size:74.451px;fill:#00ff7c;">3</text><text x="145.231px" y="192.883px" style="font-family:'ArialMT', 'Arial', sans-serif;font-size:74.451px;fill:#b800b0;">4</text><text x="17.726px" y="158.783px" style="font-family:'ArialMT', 'Arial', sans-serif;font-size:35.501px;fill:#363636;">4</text><text x="8.905px" y="196.193px" style="font-family:'ArialMT', 'Arial', sans-serif;font-size:35.501px;fill:#363636;">12</text><path d="M80.672,163.666l0,3.88l50,0l0,-3.88l-50,0Z" style="fill:#363636;"/><text x="95.862px" y="160.811px" style="font-family:'ArialMT', 'Arial', sans-serif;font-size:35.501px;fill:#363636;">7</text><text x="96.305px" y="195.601px" style="font-family:'ArialMT', 'Arial', sans-serif;font-size:35.501px;fill:#363636;">8</text><rect x="27.5" y="10" width="15" height="50" style="fill:#00ff20;"/><path d="M10,27.5l0,15l50,0l0,-15l-50,0Z" style="fill:#00ff20;"/></svg>