<?xml version="1.0" encoding="UTF-8" standalone="no"?><!DOCTYPE svg PUBLIC "-//W3C//DTD SVG 1.1//EN" "http://www.w3.org/Graphics/SVG/1.1/DTD/svg11.dtd"><svg width="100%" height="100%" viewBox="0 0 200 200" version="1.1" xmlns="http://www.w3.org/2000/svg" xmlns:xlink="http://www.w3.org/1999/xlink" xml:space="preserve" xmlns:serif="http://www.serif.com/" style="fill-rule:evenodd;clip-rule:evenodd;stroke-linecap:round;stroke-linejoin:round;stroke-miterlimit:1.5;"><path d="M98.939,29.82l-26.88,0.213" style="fill:none;stroke:#353535;stroke-width:4px;"/><circle cx="154.884" cy="53.419" r="2.896" style="fill:#353535;"/><circle cx="191.574" cy="33.967" r="2.896" style="fill:#353535;"/><circle cx="180.582" cy="5.58" r="2.896" style="fill:#353535;"/><rect x="161.496" y="19.743" width="5.14" height="16.21" style="fill:#353535;"/><path d="M155.565,25.08l0,5.14l16.211,0l0,-5.14l-16.211,0Z" style="fill:#353535;"/><rect x="179.881" y="53.546" width="5.14" height="16.21" style="fill:#353535;"/><path d="M173.95,58.884l0,5.14l16.21,0l0,-5.14l-16.21,0Z" style="fill:#353535;"/><path d="M185.805,88.451l-22.177,0c0,0 0,67.413 0,94.518c0,6.124 4.964,11.088 11.088,11.088c0,0 0.001,0 0.001,0c6.124,0 11.088,-4.964 11.088,-11.088c0,-27.105 0,-94.518 0,-94.518Z" style="fill:#fff;fill-opacity:0.6;stroke:#353535;stroke-width:1px;"/><path d="M36.955,140.594c4.026,-4.868 10.014,-7.686 16.332,-7.686c6.317,0 12.305,2.818 16.332,7.686c10.736,12.98 24.55,29.683 34.31,41.484c2.209,2.67 2.677,6.377 1.201,9.512c-1.476,3.136 -4.63,5.138 -8.096,5.138c-22.439,0 -59.723,0 -83.697,0c-4.158,0 -7.942,-2.401 -9.713,-6.164c-1.771,-3.762 -1.209,-8.209 1.441,-11.413c9.533,-11.526 22.014,-26.617 31.89,-38.557Z" style="fill:#fff;fill-opacity:0.6;stroke:#353535;stroke-width:1px;"/><rect x="43.041" y="100.229" width="21.174" height="34.794" style="fill:#fff;fill-opacity:0.6;stroke:#353535;stroke-width:1px;"/><rect x="101.898" y="60.096" width="21.745" height="45.081" style="fill:#fff;fill-opacity:0.6;stroke:#353535;stroke-width:1px;"/><path d="M72.885,96.356c0,-0.658 -0.261,-1.288 -0.726,-1.752c-0.464,-0.465 -1.095,-0.726 -1.752,-0.726c-6.842,0 -25.951,0 -32.888,0c-1.413,0 -2.558,1.145 -2.558,2.558c0,0.514 0,1.053 0,1.565c0,1.375 1.115,2.491 2.49,2.491c6.454,0 23.754,0 31.541,0c1.032,0 2.023,-0.411 2.753,-1.141c0.73,-0.73 1.14,-1.72 1.14,-2.752c0,-0.082 0,-0.163 0,-0.243Z" style="fill:#fff;fill-opacity:0.6;stroke:#353535;stroke-width:1px;"/><path d="M132.369,55.732c0,-1.795 -1.455,-3.25 -3.25,-3.25c-7.45,0 -25.659,0 -32.677,0c-0.748,0 -1.466,0.297 -1.995,0.826c-0.53,0.53 -0.827,1.248 -0.827,1.996c0,0.599 0,1.234 0,1.841c0,1.689 1.37,3.059 3.059,3.059c7.396,0 26.144,0 33.068,0c1.448,0 2.622,-1.174 2.622,-2.622c0,-0.595 0,-1.233 0,-1.85Z" style="fill:#fff;fill-opacity:0.6;stroke:#353535;stroke-width:1px;"/><path d="M193.234,83.656c0,-0.596 -0.237,-1.168 -0.658,-1.589c-0.422,-0.422 -0.993,-0.659 -1.59,-0.659c-6.431,0 -24.926,0 -32.407,0c-1.767,0.001 -3.198,1.432 -3.198,3.198c0,0.001 0,0.001 0,0.001c0,2.072 1.68,3.752 3.752,3.752c7.584,0 24.589,0 31.3,0c1.547,0 2.801,-1.254 2.801,-2.801c0,-0.633 0,-1.296 0,-1.902Z" style="fill:#fff;fill-opacity:0.6;stroke:#353535;stroke-width:1px;"/><path d="M55.195,95.48l-0.319,-92.985l-27.546,0.197l0.462,27.599l46.402,-0.294l-0.547,-27.517l22.366,-0.338l0.618,27.743l44.397,0.015l-0.101,-27.591l-28.067,-0.379l1.054,53.089" style="fill:none;stroke:#353535;stroke-width:4px;"/><path d="M20.804,161.045l63.106,-2.494l21.37,25.747c1.001,6.307 -0.904,10.815 -7.802,12.23l-85.803,-0.331c-7.234,-0.9 -11.299,-10.316 -6.966,-15.858l16.095,-19.294Z" style="fill:#be00ff;fill-opacity:0.901961;"/><ellipse cx="113.458" cy="149.354" rx="44.749" ry="46.247" style="fill:#fff;fill-opacity:0.6;stroke:#353535;stroke-width:1px;"/><path d="M70.839,137.017c-6.579,27.491 9.183,52.417 36.293,57.987c14.343,0.993 28.611,-1.727 42.594,-18.766c7.661,-13.146 9.821,-24.343 6.257,-39.439l-85.144,0.218Z" style="fill:#3cf986;fill-opacity:0.901961;"/><path d="M185.295,113.478l-21.235,0c0,0 0,48.003 0,69.861c0,2.816 1.118,5.516 3.109,7.507c1.991,1.991 4.691,3.109 7.507,3.109c0.001,0 0.002,0 0.003,0c2.815,0 5.516,-1.118 7.507,-3.109c1.99,-1.991 3.109,-4.691 3.109,-7.507c0,-21.858 0,-69.861 0,-69.861Z" style="fill:#f3f93c;fill-opacity:0.901961;"/></svg>